<svg width="39" height="37" viewBox="0 0 39 37" fill="none" xmlns="http://www.w3.org/2000/svg">
<path d="M34.125 22.7172L32.825 21.6976C32.0368 21.0756 31.6032 20.1368 31.655 19.1642C31.655 18.948 31.655 18.7163 31.655 18.5C31.655 18.2837 31.655 18.052 31.655 17.8358C31.6032 16.8632 32.0368 15.9244 32.825 15.3024L34.125 14.2829C34.7418 13.8074 34.9068 12.9777 34.515 12.321L32.63 9.23155C32.2305 8.58651 31.4019 8.3066 30.6638 8.56731L29.0388 9.12342C28.0798 9.46412 27.008 9.35537 26.1463 8.82992C25.7643 8.57904 25.3622 8.35695 24.9438 8.16568C24.0294 7.71991 23.3906 6.88931 23.2213 5.9258L22.945 4.38106C22.8163 3.62559 22.125 3.07362 21.32 3.08347H17.5825C16.7775 3.07362 16.0863 3.62559 15.9575 4.38106L15.6813 5.9258C15.526 6.87714 14.9132 7.70532 14.0238 8.16568C13.6053 8.35695 13.2033 8.57904 12.8213 8.82992C11.9595 9.35537 10.8877 9.46412 9.92876 9.12342L8.30376 8.56731C7.57503 8.32364 6.76656 8.60135 6.37001 9.23155L4.48501 12.321C4.09326 12.9777 4.25819 13.8074 4.87501 14.2829L6.17501 15.3024C6.96321 15.9244 7.3968 16.8632 7.34501 17.8358C7.34501 18.052 7.34501 18.2837 7.34501 18.5C7.34501 18.7163 7.34501 18.948 7.34501 19.1642C7.3968 20.1368 6.96321 21.0756 6.17501 21.6976L4.87501 22.7172C4.25819 23.1927 4.09326 24.0223 4.48501 24.679L6.37001 27.7685C6.76955 28.4135 7.59811 28.6934 8.33626 28.4327L9.96126 27.8766C10.9202 27.5359 11.992 27.6447 12.8538 28.1701C13.2358 28.421 13.6378 28.6431 14.0563 28.8343C14.9706 29.2801 15.6094 30.1107 15.7788 31.0742L16.055 32.619C16.1838 33.3744 16.875 33.9264 17.68 33.9165H21.4175C22.2225 33.9264 22.9138 33.3744 23.0425 32.619L23.3188 31.0742C23.4881 30.1107 24.1269 29.2801 25.0413 28.8343C25.4597 28.6431 25.8618 28.421 26.2438 28.1701C27.1055 27.6447 28.1773 27.5359 29.1363 27.8766L30.7613 28.4327C31.4707 28.6436 32.2402 28.3701 32.63 27.7685L34.515 24.679C34.9068 24.0223 34.7418 23.1927 34.125 22.7172ZM19.5 23.1342C16.8076 23.1342 14.625 21.0594 14.625 18.5C14.625 15.9406 16.8076 13.8658 19.5 13.8658C22.1924 13.8658 24.375 15.9406 24.375 18.5C24.375 19.7291 23.8614 20.9078 22.9472 21.7769C22.0329 22.646 20.7929 23.1342 19.5 23.1342Z" fill="white"/>
</svg>
