<svg width="37" height="37" viewBox="0 0 37 37" fill="none" xmlns="http://www.w3.org/2000/svg">
<g clip-path="url(#clip0_59_224)">
<mask id="path-1-inside-1_59_224" fill="white">
<path d="M32.375 18.87V30.8333C32.375 31.6848 31.6848 32.375 30.8333 32.375H24.6667C23.8152 32.375 23.125 31.6848 23.125 30.8333V22.3542C23.125 21.9284 22.7799 21.5833 22.3542 21.5833H14.6458C14.2201 21.5833 13.875 21.9284 13.875 22.3542V30.8333C13.875 31.6848 13.1848 32.375 12.3333 32.375H6.16667C5.31523 32.375 4.625 31.6848 4.625 30.8333V18.87C4.62608 17.6438 5.11406 16.4682 5.98167 15.6017L16.5112 5.07208C16.7984 4.78727 17.186 4.6267 17.5904 4.625H19.4096C19.814 4.6267 20.2016 4.78727 20.4887 5.07208L31.0183 15.6017C31.8859 16.4682 32.3739 17.6438 32.375 18.87Z"/>
</mask>
<path d="M32.375 18.87V30.8333C32.375 31.6848 31.6848 32.375 30.8333 32.375H24.6667C23.8152 32.375 23.125 31.6848 23.125 30.8333V22.3542C23.125 21.9284 22.7799 21.5833 22.3542 21.5833H14.6458C14.2201 21.5833 13.875 21.9284 13.875 22.3542V30.8333C13.875 31.6848 13.1848 32.375 12.3333 32.375H6.16667C5.31523 32.375 4.625 31.6848 4.625 30.8333V18.87C4.62608 17.6438 5.11406 16.4682 5.98167 15.6017L16.5112 5.07208C16.7984 4.78727 17.186 4.6267 17.5904 4.625H19.4096C19.814 4.6267 20.2016 4.78727 20.4887 5.07208L31.0183 15.6017C31.8859 16.4682 32.3739 17.6438 32.375 18.87Z" fill="white"/>
<path d="M32.375 18.87H48.375L48.375 18.8559L32.375 18.87ZM4.625 18.87L-11.375 18.8559V18.87H4.625ZM5.98167 15.6017L17.2883 26.9224L17.2954 26.9154L5.98167 15.6017ZM16.5112 5.07208L5.24388 -6.28777L5.22066 -6.26475L5.19754 -6.24162L16.5112 5.07208ZM17.5904 4.625V-11.375H17.5567L17.523 -11.3749L17.5904 4.625ZM19.4096 4.625L19.477 -11.3749L19.4433 -11.375H19.4096V4.625ZM20.4887 5.07208L31.8025 -6.24163L31.7793 -6.26475L31.7561 -6.28777L20.4887 5.07208ZM31.0183 15.6017L19.7046 26.9154L19.7117 26.9224L31.0183 15.6017ZM16.375 18.87V30.8333H48.375V18.87H16.375ZM16.375 30.8333C16.375 22.8482 22.8482 16.375 30.8333 16.375V48.375C40.5213 48.375 48.375 40.5213 48.375 30.8333H16.375ZM30.8333 16.375H24.6667V48.375H30.8333V16.375ZM24.6667 16.375C32.6518 16.375 39.125 22.8482 39.125 30.8333H7.125C7.125 40.5213 14.9787 48.375 24.6667 48.375V16.375ZM39.125 30.8333V22.3542H7.125V30.8333H39.125ZM39.125 22.3542C39.125 13.0919 31.6164 5.58333 22.3542 5.58333V37.5833C13.9433 37.5833 7.125 30.765 7.125 22.3542H39.125ZM22.3542 5.58333H14.6458V37.5833H22.3542V5.58333ZM14.6458 5.58333C5.38356 5.58333 -2.125 13.0919 -2.125 22.3542H29.875C29.875 30.765 23.0567 37.5833 14.6458 37.5833V5.58333ZM-2.125 22.3542V30.8333H29.875V22.3542H-2.125ZM-2.125 30.8333C-2.125 22.8482 4.34822 16.375 12.3333 16.375V48.375C22.0213 48.375 29.875 40.5213 29.875 30.8333H-2.125ZM12.3333 16.375H6.16667V48.375H12.3333V16.375ZM6.16667 16.375C14.1518 16.375 20.625 22.8482 20.625 30.8333H-11.375C-11.375 40.5213 -3.52133 48.375 6.16667 48.375V16.375ZM20.625 30.8333V18.87H-11.375V30.8333H20.625ZM20.625 18.8841C20.6223 21.8999 19.4222 24.7912 17.2883 26.9224L-5.32499 4.28091C-9.19404 8.14514 -11.3702 13.3877 -11.375 18.8559L20.625 18.8841ZM17.2954 26.9154L27.825 16.3858L5.19754 -6.24162L-5.33204 4.28796L17.2954 26.9154ZM27.7786 16.4319C25.0856 19.103 21.4508 20.6089 17.6578 20.6249L17.523 -11.3749C12.9212 -11.3555 8.5112 -9.52849 5.24388 -6.28777L27.7786 16.4319ZM17.5904 20.625H19.4096V-11.375H17.5904V20.625ZM19.3422 20.6249C15.5492 20.6089 11.9144 19.103 9.22138 16.4319L31.7561 -6.28777C28.4888 -9.52849 24.0788 -11.3555 19.477 -11.3749L19.3422 20.6249ZM9.17504 16.3858L19.7046 26.9154L42.332 4.28796L31.8025 -6.24163L9.17504 16.3858ZM19.7117 26.9224C17.5778 24.7912 16.3777 21.8999 16.375 18.8841L48.375 18.8559C48.3702 13.3877 46.194 8.14515 42.325 4.28091L19.7117 26.9224Z" fill="#E6C100" mask="url(#path-1-inside-1_59_224)"/>
</g>
<defs>
<clipPath id="clip0_59_224">
<rect width="37" height="37" fill="white"/>
</clipPath>
</defs>
</svg>
